<svg xmlns="http://www.w3.org/2000/svg" width="1200" height="630" viewBox="0 0 1200 630"><rect width="1200" height="630" fill="#f1e8d7"/><path d="M0 42h1200M0 588h1200" stroke="#17323e" stroke-width="3"/><g fill="none" stroke="#17323e"><circle cx="910" cy="310" r="190" stroke-width="3"/><circle cx="910" cy="310" r="142" opacity=".45"/><path d="M716 505h388M762 533h296M812 558h196" stroke-width="5"/><path d="M842 505V345h42v-55h52v55h42v160M884 345h52v160M910 290v215" stroke-width="5"/></g><circle cx="910" cy="270" r="100" fill="#d5a940"/><path d="M810 270h200M820 240h180M842 210h136" stroke="#f1e8d7" stroke-width="8"/><g fill="#17323e" font-family="Arial, sans-serif"><text x="82" y="105" font-size="28" letter-spacing="8">LINDA DELLA INDUSTRIES</text><text x="82" y="264" font-size="78" font-weight="700">Practical AI systems.</text><text x="82" y="350" font-size="78" font-weight="700">Built in Baltimore.</text><text x="82" y="455" font-size="28">One useful workflow, mapped, built, tested, and handed off.</text><text x="82" y="535" font-size="24" letter-spacing="4">7 DAYS  /  $1,000 FOUNDING RATE</text></g></svg>